<svg width="126" height="100" viewBox="0 0 126 100" fill="none" xmlns="http://www.w3.org/2000/svg">
<path d="M1.17337 46.2425C2.05738 44.414 3.95154 42.8315 5.33117 41.5766C8.08156 39.0746 11.0034 36.7554 13.9253 34.4604C22.2067 27.9533 30.7089 21.7249 39.2956 15.6288C46.5733 10.4634 53.8722 5.0043 61.6797 0.648617C63.7113 -0.485081 66.2423 -0.0979383 67.7922 1.53893C69.1113 2.43809 69.9915 3.95138 69.9915 5.6399V25.8258C70.5552 25.7715 71.1202 25.7161 71.6839 25.6618C73.2577 25.508 74.8315 25.3491 76.404 25.1713C76.6953 25.1385 76.9854 25.1032 77.2754 25.0679C77.6424 25.0149 78.0094 24.9556 78.37 24.8674C81.2289 24.1649 84.4041 24.1511 87.3326 23.7677C87.4183 23.7564 87.5242 23.7412 87.6604 23.7236C88.0186 23.6744 88.378 23.6252 88.7361 23.5748C89.6353 23.4499 90.5331 23.3213 91.431 23.1939C93.0515 22.9632 94.6707 22.7311 96.2913 22.5066C102.346 21.6642 108.423 20.8874 114.535 20.7021C114.735 20.6768 114.936 20.6605 115.141 20.6605H116.948C117.393 20.6605 117.824 20.7273 118.238 20.842C119.075 20.6327 119.954 20.6176 120.755 20.8383C123.523 21.6 124.714 24.2836 124.219 26.9382C124.15 27.3014 124.083 27.6646 124.021 28.0303C124.031 27.9698 123.861 29.0909 123.847 29.1199C123.741 29.9522 123.66 30.7883 123.588 31.6244C123.433 33.439 123.379 35.2614 123.365 37.0822C123.336 40.7254 123.571 44.3673 123.849 47.9969C124.409 55.2658 125.215 62.5245 124.962 69.826C124.928 70.8172 124.623 71.7466 124.114 72.5297C123.606 74.0771 122.404 75.3987 120.755 75.7417C116.702 76.5841 112.478 76.5311 108.362 76.4113C103.071 76.2562 97.7855 75.8325 92.5143 75.3507C85.3525 74.6962 78.2189 73.8135 71.0749 73.0014C70.9513 79.8451 70.6259 86.6915 70.7445 93.5343C70.7747 95.3086 69.776 96.885 68.332 97.7628C68.1504 98.0377 67.936 98.3013 67.6864 98.5522C65.8893 100.349 62.4277 100.612 60.6734 98.5522C60.2699 98.0793 59.7579 97.6884 59.2812 97.2949C58.8941 96.9771 58.5019 96.6657 58.1072 96.3567C58.058 96.3176 57.9949 96.2697 57.9293 96.218C57.744 96.0755 57.5586 95.9342 57.3732 95.7917C54.4614 93.571 51.5054 91.4083 48.5508 89.2443C40.64 83.4511 32.6928 77.7095 24.815 71.872C19.4718 67.9134 14.145 63.9235 8.95062 59.7708C6.10186 57.4933 2.62629 55.0962 0.675406 51.9269C-0.434338 50.1198 -0.114193 47.806 1.17337 46.2425ZM67.5707 35.9887C67.4761 35.9987 67.3803 36.0088 67.2857 36.0189C67.1079 36.0795 67.2113 36.1312 67.5707 35.9887ZM107.622 66.4626C110.048 64.8888 112.506 63.3616 114.963 61.837C114.933 61.1838 114.899 60.5306 114.86 59.8786C111.321 61.9657 107.688 63.8989 104.363 66.3162C105.449 66.373 106.536 66.4235 107.622 66.4626ZM113.548 66.5219C114.054 66.1209 114.564 65.7236 115.078 65.334C115.072 65.0011 115.066 64.6681 115.057 64.3365C113.982 65.0313 112.942 65.7817 111.908 66.5408C112.455 66.5408 113.002 66.5332 113.548 66.5219ZM114.247 66.5093C114.364 66.5055 114.483 66.4979 114.6 66.4941C114.759 66.4172 114.922 66.3479 115.09 66.2873C115.088 66.1158 115.088 65.9431 115.086 65.7715C114.762 66.0149 114.438 66.2608 114.117 66.5118C114.16 66.5105 114.204 66.5105 114.247 66.5093ZM111.313 66.5408C112.538 65.6391 113.765 64.7413 115.045 63.9241C115.029 63.3629 115.006 62.803 114.982 62.2418C112.726 63.6416 110.471 65.0427 108.24 66.4816C109.264 66.5156 110.289 66.5358 111.313 66.5408ZM56.6568 82.9511C58.1095 82.0721 59.5421 81.1591 60.9847 80.265C61.0099 79.3293 61.0351 78.3949 61.0604 77.4592C59.0262 78.8779 57.0198 80.3395 54.9365 81.6838C55.509 82.105 56.083 82.5274 56.6568 82.9511ZM59.6316 85.153C60.0389 85.4569 60.4437 85.7646 60.8498 86.0697C60.8649 85.2009 60.8813 84.3307 60.9028 83.4618C60.3088 83.912 59.6934 84.3345 59.0604 84.7305C59.2508 84.8717 59.4412 85.0117 59.6316 85.153ZM58.7552 84.5035C59.5017 84.0419 60.2244 83.5451 60.9142 83.0079C60.9331 82.2349 60.952 81.4618 60.9734 80.6875C59.6367 81.5173 58.31 82.3609 56.9645 83.1768C57.5622 83.6195 58.1587 84.0609 58.7552 84.5035ZM17.0256 53.596C17.7785 54.1912 18.5351 54.7826 19.2918 55.3716C19.3082 55.3854 19.3283 55.3993 19.3472 55.4157C19.462 55.504 19.578 55.5935 19.694 55.6818C20.1795 56.0563 20.6676 56.4283 21.1543 56.8003C29.0044 62.7918 36.9945 68.5964 44.9747 74.4126C48.1942 76.7594 51.4175 79.1024 54.6307 81.4607C56.8262 80.0521 58.9308 78.5098 61.0709 77.0217C61.0873 76.4164 61.1024 75.8124 61.1163 75.207C58.55 76.9322 55.9977 78.6762 53.1313 79.8817C52.9207 79.97 52.8299 79.6269 53.0367 79.5399C55.9435 78.3179 58.5236 76.5335 61.1266 74.782C61.1493 73.7958 61.1682 72.8097 61.1821 71.8235C58.1593 73.6142 55.2943 75.7314 52.2299 77.4076C52.0294 77.5173 51.8503 77.2109 52.0508 77.1011C55.1783 75.3911 58.0966 73.2284 61.1861 71.4151C61.1924 70.9005 61.1949 70.386 61.1987 69.8715C58.1936 71.7719 55.1946 73.6813 52.0409 75.3306C51.8391 75.4366 51.66 75.1301 51.8618 75.0242C55.0788 73.342 58.1357 71.3885 61.2014 69.4502C61.2026 69.1954 61.2077 68.9419 61.2077 68.6872C61.2077 68.6065 61.2165 68.5258 61.2203 68.4451C58.427 70.1879 55.6236 71.9117 52.6071 73.2511C52.4003 73.3432 52.2199 73.038 52.428 72.9447C55.5252 71.5701 58.3953 69.7895 61.263 68.0014C61.2996 67.7505 61.3513 67.5033 61.4244 67.265C58.674 68.6231 55.7848 69.7392 53.1744 71.3621C52.9802 71.4831 52.8024 71.1767 52.9953 71.0556C55.7129 69.3658 58.7421 68.2321 61.5946 66.7945C61.7283 66.478 61.8948 66.1779 62.0877 65.8979C62.799 63.9937 64.6363 62.3668 66.7336 62.594C75.2145 63.5083 83.6724 64.6042 92.1668 65.3936C96.0421 65.7543 99.9236 66.0721 103.81 66.2865C107.283 63.7025 111.116 61.6796 114.836 59.4792C114.797 58.8524 114.755 58.2269 114.71 57.6002C110.11 59.9256 105.569 62.3784 101.57 65.6672C101.395 65.8109 101.143 65.5612 101.32 65.4162C105.387 62.072 110.004 59.5813 114.682 57.2178C114.637 56.5923 114.587 55.9668 114.538 55.3414C109.713 57.8698 104.833 60.4325 101.003 64.3442C100.843 64.5082 100.593 64.2572 100.752 64.0946C104.643 60.1198 109.607 57.5294 114.506 54.9593C114.474 54.5558 114.442 54.1535 114.408 53.7499C109.382 56.6466 104.429 59.6894 99.8328 63.2384C99.6524 63.3783 99.4759 63.0694 99.6537 62.9319C104.294 59.3478 109.298 56.2809 114.376 53.3592C114.326 52.7665 114.277 52.1738 114.227 51.5824C108.929 54.6089 103.798 57.9106 98.887 61.5386C98.7029 61.6748 98.5263 61.3671 98.7079 61.2322C103.664 57.5699 108.844 54.2408 114.194 51.1914C114.111 50.1989 114.029 49.2052 113.951 48.2127C108.46 51.2733 103.139 54.6264 98.1682 58.4879C97.9904 58.6253 97.7369 58.3769 97.9172 58.2369C102.958 54.3226 108.351 50.9241 113.92 47.8255C113.91 47.6981 113.9 47.5708 113.89 47.4447C113.831 46.6691 113.778 45.8923 113.73 45.118C107.867 48.2997 102.217 51.9908 97.2248 56.4107C97.0545 56.5621 96.8023 56.3124 96.9738 56.161C102.035 51.6817 107.761 47.9452 113.706 44.7295C113.66 43.9728 113.622 43.2162 113.591 42.4608C107.595 45.5215 101.902 49.3098 97.0357 53.9553C96.8705 54.113 96.6195 53.8633 96.7847 53.7044C101.718 48.9942 107.492 45.1606 113.575 42.0723C113.546 41.3195 113.523 40.5654 113.509 39.8125C107.524 42.4406 102.173 46.3777 97.0358 50.3663C96.858 50.5037 96.6046 50.2553 96.7849 50.1153C102.001 46.066 107.421 42.0848 113.503 39.4327C113.486 38.3331 113.486 37.2347 113.507 36.1376C113.026 36.4642 112.566 36.8413 112.183 37.0998C111.024 37.8766 109.889 38.69 108.711 39.4378C104.829 41.8994 100.862 44.4895 97.4115 47.5339C97.2413 47.6839 96.9891 47.4342 97.1619 47.2829C100.674 44.1832 104.699 41.7973 108.532 39.1313C109.676 38.3356 110.847 37.5727 112.004 36.7933C112.441 36.4969 112.967 36.0619 113.516 35.71C113.537 34.8336 113.571 33.9571 113.619 33.0807C111.879 34.2169 109.605 35.995 109.239 36.2561C105.2 39.1389 101.11 41.9877 97.2238 45.0772C97.0473 45.2172 96.7938 44.9687 96.9729 44.8262C101.124 41.5259 105.539 38.5788 109.79 35.4172C110.174 35.1322 112.055 33.5155 113.653 32.5319C113.683 32.0376 113.72 31.5432 113.762 31.0489C108 35.2773 102.32 39.6292 96.2426 43.4047C96.0484 43.5258 95.8706 43.2193 96.0635 43.0983C102.185 39.2962 107.903 34.9076 113.708 30.6501C111.756 30.7258 109.807 30.8506 107.858 31.0234C107.692 31.0385 107.525 31.0574 107.359 31.0725C103.106 34.5052 98.5126 37.4572 93.7859 40.1926C93.588 40.3074 93.4101 40.0009 93.6069 39.8862C98.1617 37.2505 102.595 34.4144 106.712 31.1357C105.476 31.2581 104.24 31.3917 103.007 31.5393C102.966 31.5443 102.926 31.5494 102.885 31.5544C99.2843 34.0589 95.1378 35.6341 91.5185 38.1144C91.3293 38.2443 91.1528 37.9366 91.3394 37.808C94.7621 35.4624 98.6548 33.9275 102.113 31.6502C101.692 31.7032 101.269 31.7536 100.848 31.8091C99.6788 31.9592 100.094 31.9062 98.9247 32.0676C95.8679 32.4901 92.8148 32.9416 89.7569 33.359C87.8892 33.6137 86.0217 33.8609 84.1502 34.0866C83.439 34.1724 82.7277 34.2518 82.0152 34.3287C81.6697 34.3653 81.3242 34.4019 80.9786 34.4372C79.8184 34.7827 78.4893 34.8332 77.3151 34.9795C75.798 35.1686 74.2772 35.32 72.7564 35.4725C71.2633 35.6213 69.7701 35.7638 68.277 35.9139C68.185 35.9227 68.0929 35.9341 68.0009 35.9429C67.4763 36.1359 66.9163 36.2443 66.3312 36.2418C65.0802 36.2355 63.8305 35.8698 62.8533 35.1535C62.7045 35.0791 62.5607 34.9984 62.422 34.9101C62.2152 35.0841 62.0147 35.2556 61.8205 35.4183C60.6149 36.4259 59.4547 37.5218 58.0827 38.3036C57.8835 38.4171 57.7056 38.1107 57.9036 37.9972C59.4522 37.1144 60.76 35.8483 62.1282 34.7107C61.6881 34.3879 61.301 33.997 60.9844 33.5505C58.6224 34.9945 56.2794 36.4674 53.9263 37.9253C53.7308 38.0463 53.5543 37.7399 53.7472 37.6188C56.0954 36.1635 58.4348 34.6931 60.7915 33.2531C60.4485 32.6882 60.2152 32.0551 60.1219 31.3792C56.8897 33.2178 53.4747 34.7576 50.1479 36.4134C49.9436 36.5143 49.7645 36.2092 49.9688 36.107C53.3408 34.4285 56.8113 32.8735 60.0852 30.9998C60.0801 30.9052 60.07 30.8119 60.07 30.716V28.0854C57.046 29.938 53.7079 31.3845 50.7143 33.2017C50.5188 33.3203 50.341 33.0138 50.5352 32.8953C53.587 31.0415 57.0019 29.5798 60.0701 27.6705V25.6844C56.6943 28.3112 53.0259 30.5785 49.2022 32.4461C48.998 32.5457 48.8189 32.2406 49.0232 32.1397C52.9162 30.238 56.6463 27.9251 60.069 25.2352V23.244C59.5935 23.5618 59.1332 23.8607 58.7183 24.1418C55.7334 26.1596 52.5793 27.9377 49.3913 29.6123C49.1896 29.7182 49.0105 29.413 49.2123 29.3058C52.085 27.7976 54.9096 26.1897 57.6376 24.4304C58.4623 23.8982 59.2757 23.3446 60.0689 22.767V20.4025C56.674 23.0092 52.6854 24.9587 49.201 27.3448C49.0119 27.4734 48.8353 27.167 49.0219 27.0383C52.558 24.6171 56.6424 22.6484 60.0677 19.9663V16.5956C55.867 19.4999 51.6476 22.3776 47.3106 25.0787C47.1164 25.1998 46.9386 24.8933 47.1315 24.7723C51.5289 22.0332 55.8064 19.1114 60.0662 16.1668V15.4076C58.7093 16.6246 57.1834 17.6687 55.6637 18.6347C52.9537 20.3573 50.0532 21.8139 47.0783 23.0182C46.8664 23.1039 46.7756 22.7609 46.9837 22.6764C49.8035 21.5351 52.5196 20.1429 55.1162 18.5577C56.8313 17.511 58.5676 16.3395 60.0646 14.9436V13.2348C55.9837 15.8969 52.0163 18.7633 48.0516 21.5404C39.5759 27.4776 31.1961 33.5595 22.9916 39.8664C22.9323 39.9118 22.8402 39.9824 22.7507 40.0518C22.6448 40.1337 22.5401 40.2157 22.4342 40.2977C21.931 40.6873 21.4304 41.0795 20.9297 41.473C19.9864 42.2132 19.047 42.9598 18.1125 43.7114C16.5715 44.951 15.0468 46.2108 13.5537 47.5073C12.9181 48.0596 12.2889 48.622 11.6747 49.1984C12.1048 49.5742 12.5398 49.9449 12.9761 50.3132C14.3116 51.4317 15.6649 52.519 17.0256 53.596Z" fill="#F4A58B"/>
<path d="M110.801 31.0081C111.005 30.9047 111.184 31.2098 110.981 31.3145C105.133 34.2881 100.127 38.5883 94.7342 42.2718C94.5451 42.4005 94.3685 42.094 94.5552 41.9654C99.9475 38.2832 104.954 33.9817 110.801 31.0081Z" fill="#F4A58B"/>
</svg>
