<svg width="126" height="100" viewBox="0 0 126 100" fill="none" xmlns="http://www.w3.org/2000/svg">
<path d="M123.836 46.2425C122.952 44.414 121.058 42.8315 119.679 41.5766C116.928 39.0746 114.006 36.7554 111.084 34.4604C102.803 27.9533 94.3009 21.7249 85.7142 15.6288C78.4365 10.4634 71.1375 5.0043 63.3301 0.648617C61.2985 -0.485081 58.7675 -0.0979383 57.2176 1.53893C55.8985 2.43809 55.0183 3.95138 55.0183 5.6399V25.8258C54.4546 25.7715 53.8896 25.7161 53.3259 25.6618C51.7521 25.508 50.1783 25.3491 48.6057 25.1713C48.3144 25.1385 48.0244 25.1032 47.7343 25.0679C47.3674 25.0149 47.0004 24.9556 46.6397 24.8674C43.7809 24.1649 40.6056 24.1511 37.6772 23.7677C37.5915 23.7564 37.4855 23.7412 37.3493 23.7236C36.9912 23.6744 36.6318 23.6252 36.2736 23.5748C35.3745 23.4499 34.4766 23.3213 33.5787 23.1939C31.9583 22.9632 30.3391 22.7311 28.7185 22.5066C22.664 21.6642 16.587 20.8874 10.4744 20.7021C10.2752 20.6768 10.0734 20.6605 9.86912 20.6605H8.06199C7.61683 20.6605 7.18556 20.7273 6.77191 20.842C5.93454 20.6327 5.05559 20.6176 4.2548 20.8383C1.48676 21.6 0.296202 24.2836 0.790784 26.9382C0.860142 27.3014 0.926984 27.6646 0.988775 28.0303C0.978686 27.9698 1.14893 29.0909 1.1628 29.1199C1.26873 29.9522 1.34944 30.7883 1.42132 31.6244C1.57643 33.439 1.63066 35.2614 1.64453 37.0822C1.67354 40.7254 1.43898 44.3673 1.16028 47.9969C0.600356 55.2658 -0.205468 62.5245 0.0480213 69.826C0.0820707 70.8172 0.387252 71.7466 0.895458 72.5297C1.40366 74.0771 2.60548 75.3987 4.25487 75.7417C8.30806 76.5841 12.5314 76.5311 16.6475 76.4113C21.9391 76.2562 27.2242 75.8325 32.4955 75.3507C39.6572 74.6962 46.7909 73.8135 53.9349 73.0014C54.0585 79.8451 54.3838 86.6915 54.2653 93.5343C54.235 95.3086 55.2338 96.885 56.6777 97.7628C56.8593 98.0377 57.0737 98.3013 57.3234 98.5522C59.1204 100.349 62.5821 100.612 64.3363 98.5522C64.7399 98.0793 65.2518 97.6884 65.7285 97.2949C66.1157 96.9771 66.5079 96.6657 66.9026 96.3567C66.9518 96.3176 67.0149 96.2697 67.0804 96.218C67.2658 96.0755 67.4512 95.9342 67.6366 95.7917C70.5484 93.571 73.5044 91.4083 76.459 89.2443C84.3697 83.4511 92.3169 77.7095 100.195 71.872C105.538 67.9134 110.865 63.9235 116.059 59.7708C118.908 57.4933 122.383 55.0962 124.334 51.9269C125.444 50.1198 125.124 47.806 123.836 46.2425ZM57.439 35.9887C57.5336 35.9987 57.6295 36.0088 57.724 36.0189C57.9018 36.0795 57.7984 36.1312 57.439 35.9887ZM17.3882 66.4626C14.9619 64.8888 12.504 63.3616 10.0463 61.837C10.0766 61.1838 10.1106 60.5306 10.1497 59.8786C13.6883 61.9657 17.3215 63.8989 20.647 66.3162C19.5612 66.373 18.474 66.4235 17.3882 66.4626ZM11.4613 66.5219C10.9556 66.1209 10.4461 65.7236 9.93158 65.334C9.93789 65.0011 9.9442 64.6681 9.95302 64.3365C11.0274 65.0313 12.0679 65.7817 13.1019 66.5408C12.5546 66.5408 12.0073 66.5332 11.4613 66.5219ZM10.7626 66.5093C10.6453 66.5055 10.5268 66.4979 10.4095 66.4941C10.2506 66.4172 10.0879 66.3479 9.92022 66.2873C9.92148 66.1158 9.92148 65.9431 9.924 65.7715C10.2481 66.0149 10.5722 66.2608 10.8925 66.5118C10.8496 66.5105 10.8055 66.5105 10.7626 66.5093ZM13.6971 66.5408C12.4714 65.6391 11.2443 64.7413 9.96452 63.9241C9.98091 63.3629 10.0036 62.803 10.0276 62.2418C12.2836 63.6416 14.5385 65.0427 16.7693 66.4816C15.7453 66.5156 14.7211 66.5358 13.6971 66.5408ZM68.353 82.9511C66.9002 82.0721 65.4677 81.1591 64.0251 80.265C63.9999 79.3293 63.9746 78.3949 63.9494 77.4592C65.9835 78.8779 67.99 80.3395 70.0733 81.6838C69.5007 82.105 68.9268 82.5274 68.353 82.9511ZM65.3781 85.153C64.9708 85.4569 64.566 85.7646 64.16 86.0697C64.1448 85.2009 64.1284 84.3307 64.107 83.4618C64.7009 83.912 65.3163 84.3345 65.9494 84.7305C65.759 84.8717 65.5686 85.0117 65.3781 85.153ZM66.2546 84.5035C65.508 84.0419 64.7854 83.5451 64.0956 83.0079C64.0767 82.2349 64.0578 81.4618 64.0364 80.6875C65.3731 81.5173 66.6997 82.3609 68.0453 83.1768C67.4475 83.6195 66.8511 84.0609 66.2546 84.5035ZM107.984 53.596C107.231 54.1912 106.475 54.7826 105.718 55.3716C105.702 55.3854 105.681 55.3993 105.663 55.4157C105.548 55.504 105.432 55.5935 105.316 55.6818C104.83 56.0563 104.342 56.4283 103.855 56.8003C96.0054 62.7918 88.0152 68.5964 80.0351 74.4126C76.8155 76.7594 73.5923 79.1024 70.3791 81.4607C68.1836 80.0521 66.0789 78.5098 63.9389 77.0217C63.9225 76.4164 63.9074 75.8124 63.8935 75.207C66.4598 76.9322 69.012 78.6762 71.8785 79.8817C72.0891 79.97 72.1799 79.6269 71.973 79.5399C69.0663 78.3179 66.4862 76.5335 63.8831 74.782C63.8604 73.7958 63.8415 72.8097 63.8277 71.8235C66.8505 73.6142 69.7155 75.7314 72.7798 77.4076C72.9804 77.5173 73.1594 77.2109 72.9589 77.1011C69.8315 75.3911 66.9132 73.2284 63.8237 71.4151C63.8174 70.9005 63.8148 70.386 63.8111 69.8715C66.8162 71.7719 69.8151 73.6813 72.9689 75.3306C73.1707 75.4366 73.3498 75.1301 73.148 75.0242C69.931 73.342 66.874 71.3885 63.8084 69.4502C63.8071 69.1954 63.8021 68.9419 63.8021 68.6872C63.8021 68.6065 63.7932 68.5258 63.7895 68.4451C66.5827 70.1879 69.3861 71.9117 72.4027 73.2511C72.6095 73.3432 72.7898 73.038 72.5818 72.9447C69.4846 71.5701 66.6145 69.7895 63.7468 68.0014C63.7102 67.7505 63.6585 67.5033 63.5854 67.265C66.3357 68.6231 69.2249 69.7392 71.8354 71.3621C72.0296 71.4831 72.2074 71.1767 72.0145 71.0556C69.2968 69.3658 66.2677 68.2321 63.4151 66.7945C63.2814 66.478 63.115 66.1779 62.922 65.8979C62.2108 63.9937 60.3734 62.3668 58.2761 62.594C49.7953 63.5083 41.3373 64.6042 32.8429 65.3936C28.9676 65.7543 25.0862 66.0721 21.1996 66.2865C17.7265 63.7025 13.8941 61.6796 10.1741 59.4792C10.2132 58.8524 10.2548 58.2269 10.3002 57.6002C14.8993 59.9256 19.4403 62.3784 23.4393 65.6672C23.6146 65.8109 23.8668 65.5612 23.6902 65.4162C19.6232 62.072 15.0053 59.5813 10.3278 57.2178C10.3732 56.5923 10.4224 55.9668 10.4715 55.3414C15.2963 57.8698 20.1766 60.4325 24.0067 64.3442C24.1669 64.5082 24.4165 64.2572 24.2577 64.0946C20.3672 60.1198 15.4023 57.5294 10.5033 54.9593C10.5361 54.5558 10.5676 54.1535 10.6017 53.7499C15.6282 56.6466 20.5805 59.6894 25.177 63.2384C25.3573 63.3783 25.5339 63.0694 25.3561 62.9319C20.7153 59.3478 15.7114 56.2809 10.6342 53.3592C10.6833 52.7665 10.7325 52.1738 10.783 51.5824C16.0807 54.6089 21.2121 57.9106 26.1228 61.5386C26.3069 61.6748 26.4834 61.3671 26.3019 61.2322C21.3457 57.5699 16.1655 54.2408 10.8158 51.1914C10.899 50.1989 10.981 49.2052 11.0592 48.2127C16.55 51.2733 21.8703 54.6264 26.8416 58.4879C27.0194 58.6253 27.2729 58.3769 27.0925 58.2369C22.0521 54.3226 16.6585 50.9241 11.0897 47.8255C11.0997 47.6981 11.1098 47.5708 11.1199 47.4447C11.1792 46.6691 11.2321 45.8923 11.2801 45.118C17.1427 48.2997 22.7923 51.9908 27.785 56.4107C27.9552 56.5621 28.2074 56.3124 28.0359 56.161C22.9752 51.6817 17.2487 47.9452 11.3041 44.7295C11.3495 43.9728 11.3873 43.2162 11.4188 42.4608C17.4152 45.5215 23.1077 49.3098 27.9741 53.9553C28.1393 54.113 28.3903 53.8633 28.225 53.7044C23.2918 48.9942 17.5173 45.1606 11.4351 42.0723C11.4641 41.3195 11.4868 40.5654 11.5006 39.8125C17.4857 42.4406 22.8363 46.3777 27.9739 50.3663C28.1517 50.5037 28.4052 50.2553 28.2249 50.1153C23.0092 46.066 17.5891 42.0848 11.5069 39.4327C11.5233 38.3331 11.5233 37.2347 11.5031 36.1376C11.9836 36.4642 12.4439 36.8413 12.8272 37.0998C13.9862 37.8766 15.1211 38.69 16.299 39.4378C20.1804 41.8994 24.1478 44.4895 27.5982 47.5339C27.7685 47.6839 28.0207 47.4342 27.8479 47.2829C24.3358 44.1832 20.3104 41.7973 16.478 39.1313C15.3342 38.3356 14.1627 37.5727 13.0062 36.7933C12.5686 36.4969 12.0428 36.0619 11.4942 35.71C11.4728 34.8336 11.4387 33.9571 11.3908 33.0807C13.1311 34.2169 15.4049 35.995 15.7704 36.2561C19.8097 39.1389 23.8993 41.9877 27.786 45.0772C27.9625 45.2172 28.216 44.9687 28.0369 44.8262C23.8856 41.5259 19.4705 38.5788 15.2194 35.4172C14.836 35.1322 12.9545 33.5155 11.3567 32.5319C11.3264 32.0376 11.2899 31.5432 11.2482 31.0489C17.0102 35.2773 22.6898 39.6292 28.7672 43.4047C28.9614 43.5258 29.1392 43.2193 28.9463 43.0983C22.825 39.2962 17.1073 34.9076 11.3014 30.6501C13.2536 30.7258 15.2032 30.8506 17.1515 31.0234C17.318 31.0385 17.4844 31.0574 17.6509 31.0725C21.9033 34.5052 26.4972 37.4572 31.2238 40.1926C31.4218 40.3074 31.5996 40.0009 31.4029 39.8862C26.848 37.2505 22.4152 34.4144 18.2977 31.1357C19.5336 31.2581 20.7694 31.3917 22.0029 31.5393C22.0433 31.5443 22.0836 31.5494 22.1252 31.5544C25.7255 34.0589 29.872 35.6341 33.4913 38.1144C33.6804 38.2443 33.857 37.9366 33.6704 37.808C30.2477 35.4624 26.3549 33.9275 22.897 31.6502C23.3182 31.7032 23.7407 31.7536 24.1619 31.8091C25.3309 31.9592 24.916 31.9062 26.085 32.0676C29.1419 32.4901 32.195 32.9416 35.2529 33.359C37.1205 33.6137 38.9881 33.8609 40.8595 34.0866C41.5708 34.1724 42.282 34.2518 42.9945 34.3287C43.3401 34.3653 43.6856 34.4019 44.0311 34.4372C45.1913 34.7827 46.5205 34.8332 47.6947 34.9795C49.2117 35.1686 50.7326 35.32 52.2534 35.4725C53.7465 35.6213 55.2396 35.7638 56.7327 35.9139C56.8248 35.9227 56.9168 35.9341 57.0089 35.9429C57.5335 36.1359 58.0935 36.2443 58.6786 36.2418C59.9296 36.2355 61.1793 35.8698 62.1565 35.1535C62.3053 35.0791 62.449 34.9984 62.5878 34.9101C62.7946 35.0841 62.9951 35.2556 63.1893 35.4183C64.3949 36.4259 65.555 37.5218 66.9271 38.3036C67.1263 38.4171 67.3041 38.1107 67.1061 37.9972C65.5575 37.1144 64.2498 35.8483 62.8815 34.7107C63.3217 34.3879 63.7088 33.997 64.0253 33.5505C66.3873 34.9945 68.7303 36.4674 71.0835 37.9253C71.2789 38.0463 71.4554 37.7399 71.2625 37.6188C68.9144 36.1635 66.575 34.6931 64.2183 33.2531C64.5613 32.6882 64.7946 32.0551 64.8879 31.3792C68.1201 33.2178 71.5351 34.7576 74.8619 36.4134C75.0662 36.5143 75.2452 36.2092 75.0409 36.107C71.6689 34.4285 68.1985 32.8735 64.9246 30.9998C64.9297 30.9052 64.9397 30.8119 64.9397 30.716V28.0854C67.9638 29.938 71.3018 31.3845 74.2955 33.2017C74.4909 33.3203 74.6687 33.0138 74.4745 32.8953C71.4228 31.0415 68.0078 29.5798 64.9396 27.6705V25.6844C68.3155 28.3112 71.9839 30.5785 75.8075 32.4461C76.0118 32.5457 76.1909 32.2406 75.9866 32.1397C72.0935 30.238 68.3635 27.9251 64.9408 25.2352V23.244C65.4163 23.5618 65.8765 23.8607 66.2914 24.1418C69.2764 26.1596 72.4304 27.9377 75.6184 29.6123C75.8202 29.7182 75.9993 29.413 75.7975 29.3058C72.9248 27.7976 70.1001 26.1897 67.3722 24.4304C66.5474 23.8982 65.7341 23.3446 64.9408 22.767V20.4025C68.3358 23.0092 72.3244 24.9587 75.8087 27.3448C75.9979 27.4734 76.1745 27.167 75.9878 27.0383C72.4518 24.6171 68.3673 22.6484 64.9421 19.9663V16.5956C69.1428 19.4999 73.3622 22.3776 77.6992 25.0787C77.8934 25.1998 78.0712 24.8933 77.8782 24.7723C73.4809 22.0332 69.2034 19.1114 64.9436 16.1668V15.4076C66.3005 16.6246 67.8264 17.6687 69.3461 18.6347C72.0561 20.3573 74.9566 21.8139 77.9315 23.0182C78.1434 23.1039 78.2342 22.7609 78.0261 22.6764C75.2063 21.5351 72.4901 20.1429 69.8936 18.5577C68.1785 17.511 66.4421 16.3395 64.9452 14.9436V13.2348C69.0261 15.8969 72.9934 18.7633 76.9582 21.5404C85.4339 27.4776 93.8137 33.5595 102.018 39.8664C102.077 39.9118 102.17 39.9824 102.259 40.0518C102.365 40.1337 102.47 40.2157 102.576 40.2977C103.079 40.6873 103.579 41.0795 104.08 41.473C105.023 42.2132 105.963 42.9598 106.897 43.7114C108.438 44.951 109.963 46.2108 111.456 47.5073C112.092 48.0596 112.721 48.622 113.335 49.1984C112.905 49.5742 112.47 49.9449 112.034 50.3132C110.698 51.4317 109.345 52.519 107.984 53.596Z" fill="#F4A58B"/>
<path d="M14.2083 31.0081C14.0052 30.9047 13.8262 31.2098 14.0292 31.3145C19.8767 34.2881 24.8832 38.5883 30.2755 42.2718C30.4647 42.4005 30.6412 42.094 30.4546 41.9654C25.0623 38.2832 20.0558 33.9817 14.2083 31.0081Z" fill="#F4A58B"/>
</svg>
